<svg width="24" height="24" fill="none" xmlns="http://www.w3.org/2000/svg"><path d="M12 11v9" stroke="#2A353D" stroke-width="1.5" stroke-linecap="round"/><path d="M14 9a2 2 0 11-4 0 2 2 0 014 0z" stroke="#2A353D" stroke-width="1.5"/><path d="M16.959 6C17.619 6.87 18 7.898 18 9s-.381 2.13-1.041 3M7.04 6C6.381 6.87 6 7.898 6 9s.381 2.13 1.041 3m13.275-8C21.38 5.43 22 7.15 22 9s-.62 3.57-1.684 5M3.684 4C2.62 5.43 2 7.15 2 9s.62 3.57 1.684 5" stroke="#2A353D" stroke-width="1.5" stroke-linecap="round" stroke-linejoin="round"/></svg>